<?xml version="1.0" encoding="UTF-8" standalone="no"?>
<svg width="45.5083mm" height="45.5083mm"
 xmlns="http://www.w3.org/2000/svg" xmlns:xlink="http://www.w3.org/1999/xlink"  version="1.2" baseProfile="tiny">
<desc>Created by HiQPdf</desc>
<defs>
</defs>
<g fill="none" stroke="black" stroke-width="1" fill-rule="evenodd" stroke-linecap="square" stroke-linejoin="bevel" >

<g fill="#000000" fill-opacity="1" stroke="#000000" stroke-opacity="1" stroke-width="1" stroke-linecap="square" stroke-linejoin="miter" stroke-miterlimit="2" transform="matrix(1,0,0,1,0,0)"
>
</g>

<g fill="#000000" fill-opacity="1" stroke="#000000" stroke-opacity="1" stroke-width="1" stroke-linecap="square" stroke-linejoin="miter" stroke-miterlimit="2" transform="matrix(1,0,0,1,0,0)"
>
</g>

<g fill="#000000" fill-opacity="1" stroke="#000000" stroke-opacity="1" stroke-width="1" stroke-linecap="square" stroke-linejoin="miter" stroke-miterlimit="2" transform="matrix(1,0,0,1,0,0)"
>
</g>

<g fill="#bdad9e" fill-opacity="1" stroke="none" transform="matrix(1,0,0,1,0,0)"
>
<path vector-effect="none" fill-rule="evenodd" d="M5,0 L167,0 C169.761,0 172,2.23857 172,5 L172,167 C172,169.761 169.761,172 167,172 L5,172 C2.23857,172 0,169.761 0,167 L0,5 C0,2.23857 2.23857,0 5,0 "/>
</g>

<g fill="#eee4da" fill-opacity="1" stroke="none" transform="matrix(1,0,0,1,0,0)"
>
<path vector-effect="none" fill-rule="evenodd" d="M6,4 L82,4 C83.1046,4 84,4.89543 84,6 L84,82 C84,83.1046 83.1046,84 82,84 L6,84 C4.89543,84 4,83.1046 4,82 L4,6 C4,4.89543 4.89543,4 6,4 "/>
</g>

<g fill="#dbd2c9" fill-opacity="1" stroke="none" transform="matrix(1,0,0,1,0,0)"
>
<path vector-effect="none" fill-rule="evenodd" d="M90,4 L166,4 C167.105,4 168,4.89543 168,6 L168,82 C168,83.1046 167.105,84 166,84 L90,84 C88.8954,84 88,83.1046 88,82 L88,6 C88,4.89543 88.8954,4 90,4 "/>
</g>

<g fill="#ede0c8" fill-opacity="1" stroke="none" transform="matrix(1,0,0,1,0,0)"
>
<path vector-effect="none" fill-rule="evenodd" d="M6,88 L82,88 C83.1046,88 84,88.8954 84,90 L84,166 C84,167.105 83.1046,168 82,168 L6,168 C4.89543,168 4,167.105 4,166 L4,90 C4,88.8954 4.89543,88 6,88 "/>
</g>

<g fill="#f2b179" fill-opacity="1" stroke="none" transform="matrix(1,0,0,1,0,0)"
>
<path vector-effect="none" fill-rule="evenodd" d="M90,88 L166,88 C167.105,88 168,88.8954 168,90 L168,166 C168,167.105 167.105,168 166,168 L90,168 C88.8954,168 88,167.105 88,166 L88,90 C88,88.8954 88.8954,88 90,88 "/>
</g>

<g fill="#353535" fill-opacity="1" stroke="#353535" stroke-opacity="1" stroke-width="1" stroke-linecap="square" stroke-linejoin="bevel" transform="matrix(1,0,0,1,0,0)"
>
<text fill="#353535" fill-opacity="1" stroke="none" xml:space="preserve" x="25" y="69" font-family="Arial" font-size="70" font-weight="700" font-style="normal" 
 >2</text>
</g>

<g fill="#353535" fill-opacity="1" stroke="#353535" stroke-opacity="1" stroke-width="1" stroke-linecap="square" stroke-linejoin="bevel" transform="matrix(1,0,0,1,0,0)"
>
<text fill="#353535" fill-opacity="1" stroke="none" xml:space="preserve" x="109" y="69" font-family="Arial" font-size="70" font-weight="700" font-style="normal" 
 >0</text>
</g>

<g fill="#353535" fill-opacity="1" stroke="#353535" stroke-opacity="1" stroke-width="1" stroke-linecap="square" stroke-linejoin="bevel" transform="matrix(1,0,0,1,0,0)"
>
<text fill="#353535" fill-opacity="1" stroke="none" xml:space="preserve" x="25" y="153" font-family="Arial" font-size="70" font-weight="700" font-style="normal" 
 >4</text>
</g>

<g fill="#353535" fill-opacity="1" stroke="#353535" stroke-opacity="1" stroke-width="1" stroke-linecap="square" stroke-linejoin="bevel" transform="matrix(1,0,0,1,0,0)"
>
<text fill="#353535" fill-opacity="1" stroke="none" xml:space="preserve" x="109" y="153" font-family="Arial" font-size="70" font-weight="700" font-style="normal" 
 >8</text>
</g>

<g fill="#000000" fill-opacity="1" stroke="#000000" stroke-opacity="1" stroke-width="1" stroke-linecap="square" stroke-linejoin="miter" stroke-miterlimit="2" transform="matrix(1,0,0,1,0,0)"
>
</g>

<g fill="#000000" fill-opacity="1" stroke="#000000" stroke-opacity="1" stroke-width="1" stroke-linecap="square" stroke-linejoin="miter" stroke-miterlimit="2" transform="matrix(1,0,0,1,0,0)"
>
</g>

<g fill="#000000" fill-opacity="1" stroke="#000000" stroke-opacity="1" stroke-width="1" stroke-linecap="square" stroke-linejoin="miter" stroke-miterlimit="2" transform="matrix(1,0,0,1,0,0)"
>
</g>
</g>
</svg>
